<svg width="189" height="27" viewBox="0 0 189 27" fill="none" xmlns="http://www.w3.org/2000/svg">
    <g clip-path="url(#clip0_575:4279)">
        <path d="M12.67 0H0.5C0.368193 0.00256007 0.242499 0.0560606 0.14928 0.14928C0.0560606 0.242499 0.00256007 0.368193 0 0.5V24.24C0.00256007 24.3718 0.0560606 24.4975 0.14928 24.5907C0.242499 24.6839 0.368193 24.7374 0.5 24.74H12.67C15.9507 24.74 19.0971 23.4367 21.4169 21.1169C23.7367 18.7971 25.04 15.6507 25.04 12.37C25.04 9.08927 23.7367 5.94291 21.4169 3.62309C19.0971 1.30326 15.9507 4.88867e-08 12.67 0ZM13.86 21C12.0187 21.3169 10.1242 21.0395 8.45107 20.2079C6.77789 19.3764 5.4128 18.0339 4.55347 16.3748C3.69414 14.7158 3.38516 12.8263 3.67129 10.9799C3.95741 9.13351 4.82378 7.42612 6.14495 6.10495C7.46612 4.78378 9.1735 3.91741 11.0199 3.63129C12.8663 3.34516 14.7558 3.65414 16.4148 4.51347C18.0739 5.3728 19.4164 6.73789 20.2479 8.41107C21.0795 10.0842 21.3569 11.9787 21.04 13.82C20.7316 15.6119 19.8757 17.2643 18.59 18.55C17.3043 19.8357 15.6519 20.6916 13.86 21"
              fill="#0062B8"/>
        <path d="M41.4479 2.6958C41.3699 2.6958 41.3179 2.7478 41.2919 2.8258L35.1559 20.8698C35.1299 20.9738 35.2339 20.9998 35.3119 20.9998H37.7299C37.8079 20.9998 37.8339 20.9478 37.8599 20.8698L39.0819 17.1518C39.1079 17.0738 39.1599 17.0218 39.2379 17.0218H46.7779C46.8559 17.0218 46.9339 17.0478 46.9599 17.1518L48.1559 20.8698C48.1819 20.9478 48.2079 20.9998 48.2859 20.9998H50.7299C50.8079 20.9998 50.8859 20.9478 50.8599 20.8698L44.8019 2.8258C44.7759 2.7478 44.7239 2.6958 44.6459 2.6958H41.4479ZM39.9399 14.9418C39.8619 14.9418 39.8099 14.8898 39.8359 14.8118L42.9039 5.2958C42.9559 5.1398 43.1119 5.1398 43.1639 5.2958L46.2059 14.8118C46.2319 14.8898 46.1799 14.9418 46.1019 14.9418H39.9399Z"
              fill="#1E2B3C"/>
        <path d="M53.0754 7.8438C52.9974 7.8438 52.9454 7.8958 52.9454 7.9738V20.8698C52.9454 20.9478 52.9974 20.9998 53.0754 20.9998H55.2854C55.3634 20.9998 55.4154 20.9478 55.4154 20.8698V13.7198C55.4154 11.6918 56.6634 9.7938 58.8474 9.7938C61.4214 9.7938 62.3054 11.7438 62.3054 13.7198V20.8698C62.3054 20.9478 62.3574 20.9998 62.4354 20.9998H64.6454C64.7234 20.9998 64.7754 20.9478 64.7754 20.8698V13.7198C64.7754 10.3398 62.8774 7.5838 59.1074 7.5838C57.3654 7.5838 56.2214 8.3898 55.7014 9.1698C55.6494 9.2478 55.4414 9.2998 55.4154 9.1438L55.1554 7.9738C55.1294 7.8958 55.1034 7.8438 55.0254 7.8438H53.0754Z"
              fill="#1E2B3C"/>
        <path d="M78.3923 12.2898C78.4703 12.2898 78.4963 12.2378 78.4963 12.1598C78.4963 9.0918 75.9743 7.5838 72.7763 7.5838C69.5523 7.5838 67.4983 9.3258 67.4983 11.4578C67.4983 14.6818 70.6443 15.0718 73.1403 15.3578C74.2323 15.4878 76.3903 15.5918 76.3903 17.0738C76.3903 18.7638 74.4663 19.0498 73.1403 19.0498C71.0603 19.0498 69.7343 17.9838 69.7343 16.6838C69.7343 16.6058 69.6563 16.5538 69.5783 16.5538H67.3943C67.3163 16.5538 67.2643 16.6058 67.2643 16.6838C67.2643 19.1798 69.1883 21.2598 73.1403 21.2598C76.3903 21.2598 78.8603 20.0378 78.8603 17.0738C78.8603 13.7458 75.7403 13.5118 73.1403 13.1478C71.8403 12.9658 69.9683 12.9398 69.9683 11.4578C69.9683 10.6518 70.8263 9.7938 72.7763 9.7938C74.8823 9.7938 76.0263 10.7298 76.0263 12.1598C76.0263 12.2378 76.0783 12.2898 76.1563 12.2898H78.3923Z"
              fill="#1E2B3C"/>
        <path d="M94.4753 18.9198C94.4753 18.8418 94.4233 18.7898 94.3453 18.7898H93.5913C93.0453 18.7898 92.7333 18.3218 92.7333 17.9318V12.2898C92.7333 9.1178 90.4973 7.5838 86.9093 7.5838C83.9713 7.5838 81.1893 9.0918 81.1893 12.1598C81.1893 12.2378 81.2413 12.2898 81.3193 12.2898H83.5293C83.6073 12.2898 83.6593 12.2378 83.6593 12.1598C83.6593 10.8338 84.6733 9.7938 86.9093 9.7938C90.0033 9.7938 90.2633 11.2238 90.2633 12.2898C90.2633 12.6538 89.9773 13.1478 89.4053 13.1478H86.4933C82.6713 13.1478 80.7733 14.8378 80.7733 17.0998C80.7733 19.5698 82.4893 21.2598 85.9733 21.2598C88.3653 21.2598 89.9773 20.4018 90.6013 19.7518C90.6533 19.6998 90.7833 19.6738 90.8353 19.8038C91.2253 20.6358 92.1093 20.9998 93.5913 20.9998H94.3453C94.4233 20.9998 94.4753 20.9478 94.4753 20.8698V18.9198ZM90.2633 15.5918C90.2113 17.1778 89.1193 19.0498 85.9733 19.0498C83.8933 19.0498 83.2433 18.0358 83.2433 17.0998C83.2433 16.1898 83.7373 15.0978 86.4933 15.0978H90.1333C90.2113 15.0978 90.2633 15.1498 90.2633 15.2278V15.5918Z"
              fill="#1E2B3C"/>
        <path d="M102.774 18.9198C102.774 18.8418 102.722 18.7898 102.644 18.7898H101.11C100.07 18.7898 99.7064 18.2958 99.7064 17.4898V9.9238C99.7064 9.8458 99.7584 9.7938 99.8364 9.7938H102.644C102.722 9.7938 102.774 9.7418 102.774 9.6638V7.9738C102.774 7.8958 102.722 7.8438 102.644 7.8438H99.8364C99.7584 7.8438 99.7064 7.7918 99.7064 7.7138V4.2038C99.7064 4.1258 99.6544 4.0738 99.5764 4.0738H97.3664C97.2884 4.0738 97.2364 4.1258 97.2364 4.2038V7.7138C97.2364 7.7918 97.1844 7.8438 97.1064 7.8438H94.7924C94.7144 7.8438 94.6624 7.8958 94.6624 7.9738V9.6638C94.6624 9.7418 94.7144 9.7938 94.7924 9.7938H97.1064C97.1844 9.7938 97.2364 9.8458 97.2364 9.9238V17.9318C97.2364 20.0638 98.4844 20.9998 100.642 20.9998H102.644C102.722 20.9998 102.774 20.9478 102.774 20.8698V18.9198Z"
              fill="#1E2B3C"/>
        <path d="M111.433 18.9198C111.433 18.8418 111.381 18.7898 111.303 18.7898H109.769C108.729 18.7898 108.365 18.2958 108.365 17.4898V9.9238C108.365 9.8458 108.417 9.7938 108.495 9.7938H111.303C111.381 9.7938 111.433 9.7418 111.433 9.6638V7.9738C111.433 7.8958 111.381 7.8438 111.303 7.8438H108.495C108.417 7.8438 108.365 7.7918 108.365 7.7138V4.2038C108.365 4.1258 108.313 4.0738 108.235 4.0738H106.025C105.947 4.0738 105.895 4.1258 105.895 4.2038V7.7138C105.895 7.7918 105.843 7.8438 105.765 7.8438H103.451C103.373 7.8438 103.321 7.8958 103.321 7.9738V9.6638C103.321 9.7418 103.373 9.7938 103.451 9.7938H105.765C105.843 9.7938 105.895 9.8458 105.895 9.9238V17.9318C105.895 20.0638 107.143 20.9998 109.301 20.9998H111.303C111.381 20.9998 111.433 20.9478 111.433 20.8698V18.9198Z"
              fill="#1E2B3C"/>
        <path d="M114.267 7.8438C114.189 7.8438 114.137 7.8958 114.137 7.9738V26.0178C114.137 26.0958 114.189 26.1478 114.267 26.1478H116.477C116.555 26.1478 116.607 26.0958 116.607 26.0178V19.8298C116.607 19.7258 116.737 19.6218 116.867 19.7778C117.179 20.1418 118.765 21.2598 120.585 21.2598C124.381 21.2598 126.773 18.4778 126.773 14.4218C126.773 10.3658 124.381 7.5838 120.585 7.5838C119.285 7.5838 117.543 8.3118 116.867 9.0658C116.815 9.1438 116.659 9.1958 116.607 9.0398L116.347 7.9738C116.321 7.8958 116.295 7.8438 116.217 7.8438H114.267ZM124.303 14.4218C124.303 17.1258 122.821 19.0498 120.325 19.0498C117.959 19.0498 116.607 17.1258 116.607 14.4218C116.607 11.7178 117.959 9.7938 120.325 9.7938C122.821 9.7938 124.303 11.7178 124.303 14.4218Z"
              fill="#1E2B3C"/>
        <path d="M141.533 14.4218C141.533 10.3658 139.141 7.5838 135.085 7.5838C131.003 7.5838 128.637 10.3398 128.637 14.4218C128.637 18.4778 131.003 21.2598 135.085 21.2598C139.141 21.2598 141.533 18.4778 141.533 14.4218ZM139.063 14.4218C139.063 17.1258 137.581 19.0498 135.085 19.0498C132.615 19.0498 131.107 17.1258 131.107 14.4218C131.107 11.7178 132.615 9.7938 135.085 9.7938C137.581 9.7938 139.063 11.7178 139.063 14.4218Z"
              fill="#1E2B3C"/>
        <path d="M151.63 9.7938C151.708 9.7938 151.76 9.7418 151.76 9.6638V7.7138C151.76 7.6358 151.708 7.5838 151.63 7.5838H150.304C149.004 7.5838 148.042 8.2858 147.158 9.1698C147.08 9.2478 146.924 9.2998 146.872 9.1438L146.612 7.9738C146.586 7.8958 146.56 7.8438 146.482 7.8438H144.532C144.454 7.8438 144.402 7.8958 144.402 7.9738V20.8698C144.402 20.9478 144.454 20.9998 144.532 20.9998H146.742C146.82 20.9998 146.872 20.9478 146.872 20.8698V13.7198C146.872 11.6918 148.12 9.7938 150.304 9.7938H151.63Z"
              fill="#1E2B3C"/>
        <path d="M160.665 18.9198C160.665 18.8418 160.613 18.7898 160.535 18.7898H159.001C157.961 18.7898 157.597 18.2958 157.597 17.4898V9.9238C157.597 9.8458 157.649 9.7938 157.727 9.7938H160.535C160.613 9.7938 160.665 9.7418 160.665 9.6638V7.9738C160.665 7.8958 160.613 7.8438 160.535 7.8438H157.727C157.649 7.8438 157.597 7.7918 157.597 7.7138V4.2038C157.597 4.1258 157.545 4.0738 157.467 4.0738H155.257C155.179 4.0738 155.127 4.1258 155.127 4.2038V7.7138C155.127 7.7918 155.075 7.8438 154.997 7.8438H152.683C152.605 7.8438 152.553 7.8958 152.553 7.9738V9.6638C152.553 9.7418 152.605 9.7938 152.683 9.7938H154.997C155.075 9.7938 155.127 9.8458 155.127 9.9238V17.9318C155.127 20.0638 156.375 20.9998 158.533 20.9998H160.535C160.613 20.9998 160.665 20.9478 160.665 20.8698V18.9198Z"
              fill="#1E2B3C"/>
        <path d="M174.555 15.3058C174.633 15.3058 174.659 15.2538 174.685 15.1758C174.737 14.9678 174.815 14.6818 174.815 14.4218C174.815 10.3658 172.527 7.5838 168.471 7.5838C164.441 7.5838 162.153 10.3398 162.153 14.4218C162.153 18.4778 164.571 21.2598 168.471 21.2598C171.409 21.2598 173.723 19.7778 174.399 17.2298C174.425 17.1258 174.347 17.0998 174.269 17.0998H171.955C171.877 17.0998 171.825 17.1258 171.773 17.2298C171.227 18.2698 170.317 19.0498 168.471 19.0498C166.157 19.0498 164.779 17.3338 164.779 15.4358C164.779 15.3578 164.831 15.3058 164.909 15.3058H174.555ZM172.111 13.2258C172.111 13.3038 172.059 13.3558 171.981 13.3558H164.909C164.857 13.3558 164.779 13.3038 164.779 13.2258C164.779 12.0038 165.949 9.7938 168.471 9.7938C171.045 9.7938 172.111 11.7438 172.111 13.2258Z"
              fill="#1E2B3C"/>
        <path d="M177.769 7.8438C177.691 7.8438 177.639 7.8958 177.639 7.9738V20.8698C177.639 20.9478 177.691 20.9998 177.769 20.9998H179.979C180.057 20.9998 180.109 20.9478 180.109 20.8698V13.7198C180.109 11.6918 181.357 9.7938 183.541 9.7938C186.115 9.7938 186.999 11.7438 186.999 13.7198V20.8698C186.999 20.9478 187.051 20.9998 187.129 20.9998H189.339C189.417 20.9998 189.469 20.9478 189.469 20.8698V13.7198C189.469 10.3398 187.571 7.5838 183.801 7.5838C182.059 7.5838 180.915 8.3898 180.395 9.1698C180.343 9.2478 180.135 9.2998 180.109 9.1438L179.849 7.9738C179.823 7.8958 179.797 7.8438 179.719 7.8438H177.769Z"
              fill="#1E2B3C"/>
    </g>
    <defs>
        <clipPath id="clip0_575:4279">
            <rect width="189" height="27" fill="white"/>
        </clipPath>
    </defs>
</svg>
